HIERARCHY
ROOT Hips
{
	OFFSET -14.64140 90.27770 -84.91600
	CHANNELS 6 Xposition Yposition Zposition Zrotation Xrotation Yrotation
	JOINT Spine
	{
		OFFSET 0.00000 13.20850 -1.60436
		CHANNELS 3 Zrotation Xrotation Yrotation
		JOINT Spine1
		{
			OFFSET 0.00000 8.61716 0.00000
			CHANNELS 3 Zrotation Xrotation Yrotation
			JOINT Spine2
			{
				OFFSET 0.00000 8.61717 0.00000
				CHANNELS 3 Zrotation Xrotation Yrotation
				JOINT Spine3
				{
					OFFSET 0.00000 8.61717 0.00000
					CHANNELS 3 Zrotation Xrotation Yrotation
					JOINT Neck
					{
						OFFSET 0.00000 11.07920 1.10792
						CHANNELS 3 Zrotation Xrotation Yrotation
						JOINT Neck1
						{
							OFFSET 0.00000 7.08032 0.00000
							CHANNELS 3 Zrotation Xrotation Yrotation
							JOINT Head
							{
								OFFSET 0.00000 7.08031 0.00000
								CHANNELS 3 Zrotation Xrotation Yrotation
								End site
								{
									OFFSET 0.00000 0.00000 0.00000
								}
							}
						}
					}
					JOINT RightShoulder
					{
						OFFSET -0.01000 7.91373 5.19711
						CHANNELS 3 Zrotation Xrotation Yrotation
						JOINT RightArm
						{
							OFFSET -18.41580 0.00000 0.00000
							CHANNELS 3 Zrotation Xrotation Yrotation
							JOINT RightForeArm
							{
								OFFSET -29.11090 0.00000 0.00000
								CHANNELS 3 Zrotation Xrotation Yrotation
								JOINT RightHand
								{
									OFFSET -24.65040 0.00000 0.00000
									CHANNELS 3 Zrotation Xrotation Yrotation
									JOINT RightHandThumb1
									{
										OFFSET -5.35114 -0.85590 3.97906
										CHANNELS 3 Zrotation Xrotation Yrotation
										JOINT RightHandThumb2
										{
											OFFSET -4.52789 0.00000 0.00000
											CHANNELS 3 Zrotation Xrotation Yrotation
											JOINT RightHandThumb3
											{
												OFFSET -2.46976 0.00000 0.00000
												CHANNELS 3 Zrotation Xrotation Yrotation
												End site
												{
													OFFSET 0.00000 0.00000 0.00000
												}
											}
										}
									}
									JOINT RightHandIndex1
									{
										OFFSET -14.26970 0.00000 2.88139
										CHANNELS 3 Zrotation Xrotation Yrotation
										JOINT RightHandIndex2
										{
											OFFSET -5.48836 0.00000 0.00000
											CHANNELS 3 Zrotation Xrotation Yrotation
											JOINT RightHandIndex3
											{
												OFFSET -3.01859 0.00000 0.00000
												CHANNELS 3 Zrotation Xrotation Yrotation
												End site
												{
													OFFSET 0.00000 0.00000 0.00000
												}
											}
										}
									}
									JOINT RightHandMiddle1
									{
										OFFSET -14.26970 0.00000 -0.09147
										CHANNELS 3 Zrotation Xrotation Yrotation
										JOINT RightHandMiddle2
										{
											OFFSET -6.17441 0.00000 0.00000
											CHANNELS 3 Zrotation Xrotation Yrotation
											JOINT RightHandMiddle3
											{
												OFFSET -3.56743 0.00000 0.00000
												CHANNELS 3 Zrotation Xrotation Yrotation
												End site
												{
													OFFSET 0.00000 0.00000 0.00000
												}
											}
										}
									}
									JOINT RightHandRing1
									{
										OFFSET -12.69180 0.00000 -3.06433
										CHANNELS 3 Zrotation Xrotation Yrotation
										JOINT RightHandRing2
										{
											OFFSET -5.62556 0.00000 0.00000
											CHANNELS 3 Zrotation Xrotation Yrotation
											JOINT RightHandRing3
											{
												OFFSET -3.56744 0.00000 0.00000
												CHANNELS 3 Zrotation Xrotation Yrotation
												End site
												{
													OFFSET 0.00000 0.00000 0.00000
												}
											}
										}
									}
									JOINT RightHandPinky1
									{
										OFFSET -11.11390 0.00000 -6.03719
										CHANNELS 3 Zrotation Xrotation Yrotation
										JOINT RightHandPinky2
										{
											OFFSET -4.52789 0.00000 0.00000
											CHANNELS 3 Zrotation Xrotation Yrotation
											JOINT RightHandPinky3
											{
												OFFSET -2.46976 0.00000 0.00000
												CHANNELS 3 Zrotation Xrotation Yrotation
												End site
												{
													OFFSET 0.00000 0.00000 0.00000
												}
											}
										}
									}
								}
							}
						}
					}
					JOINT LeftShoulder
					{
						OFFSET 0.01000 7.91373 5.19711
						CHANNELS 3 Zrotation Xrotation Yrotation
						JOINT LeftArm
						{
							OFFSET 18.41580 0.00000 0.00000
							CHANNELS 3 Zrotation Xrotation Yrotation
							JOINT LeftForeArm
							{
								OFFSET 29.11090 0.00000 0.00000
								CHANNELS 3 Zrotation Xrotation Yrotation
								JOINT LeftHand
								{
									OFFSET 24.65040 0.00000 0.00000
									CHANNELS 3 Zrotation Xrotation Yrotation
									JOINT LeftHandThumb1
									{
										OFFSET 5.35114 -0.85590 3.97906
										CHANNELS 3 Zrotation Xrotation Yrotation
										JOINT LeftHandThumb2
										{
											OFFSET 4.52789 0.00000 0.00000
											CHANNELS 3 Zrotation Xrotation Yrotation
											JOINT LeftHandThumb3
											{
												OFFSET 2.46977 0.00000 0.00000
												CHANNELS 3 Zrotation Xrotation Yrotation
												End site
												{
													OFFSET 0.00000 0.00000 0.00000
												}
											}
										}
									}
									JOINT LeftHandIndex1
									{
										OFFSET 14.26970 0.00000 2.88139
										CHANNELS 3 Zrotation Xrotation Yrotation
										JOINT LeftHandIndex2
										{
											OFFSET 5.48836 0.00000 0.00000
											CHANNELS 3 Zrotation Xrotation Yrotation
											JOINT LeftHandIndex3
											{
												OFFSET 3.01859 0.00000 0.00000
												CHANNELS 3 Zrotation Xrotation Yrotation
												End site
												{
													OFFSET 0.00000 0.00000 0.00000
												}
											}
										}
									}
									JOINT LeftHandMiddle1
									{
										OFFSET 14.26970 0.00000 -0.09147
										CHANNELS 3 Zrotation Xrotation Yrotation
										JOINT LeftHandMiddle2
										{
											OFFSET 6.17440 0.00000 0.00000
											CHANNELS 3 Zrotation Xrotation Yrotation
											JOINT LeftHandMiddle3
											{
												OFFSET 3.56744 0.00000 0.00000
												CHANNELS 3 Zrotation Xrotation Yrotation
												End site
												{
													OFFSET 0.00000 0.00000 0.00000
												}
											}
										}
									}
									JOINT LeftHandRing1
									{
										OFFSET 12.69180 0.00000 -3.06433
										CHANNELS 3 Zrotation Xrotation Yrotation
										JOINT LeftHandRing2
										{
											OFFSET 5.62556 0.00000 0.00000
											CHANNELS 3 Zrotation Xrotation Yrotation
											JOINT LeftHandRing3
											{
												OFFSET 3.56744 0.00000 0.00000
												CHANNELS 3 Zrotation Xrotation Yrotation
												End site
												{
													OFFSET 0.00000 0.00000 0.00000
												}
											}
										}
									}
									JOINT LeftHandPinky1
									{
										OFFSET 11.11390 0.00000 -6.03719
										CHANNELS 3 Zrotation Xrotation Yrotation
										JOINT LeftHandPinky2
										{
											OFFSET 4.52789 0.00000 0.00000
											CHANNELS 3 Zrotation Xrotation Yrotation
											JOINT LeftHandPinky3
											{
												OFFSET 2.46976 0.00000 0.00000
												CHANNELS 3 Zrotation Xrotation Yrotation
												End site
												{
													OFFSET 0.00000 0.00000 0.00000
												}
											}
										}
									}
								}
							}
						}
					}
					JOINT pCube4
					{
						OFFSET 0.00000 10.91090 1.10792
						CHANNELS 3 Zrotation Xrotation Yrotation
						End site
						{
							OFFSET 0.00000 0.00000 0.00000
						}
					}
				}
			}
		}
	}
	JOINT RightUpLeg
	{
		OFFSET -9.98441 0.00000 0.00000
		CHANNELS 3 Zrotation Xrotation Yrotation
		JOINT RightLeg
		{
			OFFSET 0.00000 -42.11790 0.00000
			CHANNELS 3 Zrotation Xrotation Yrotation
			JOINT RightFoot
			{
				OFFSET 0.00000 -45.00020 -0.00001
				CHANNELS 3 Zrotation Xrotation Yrotation
				JOINT RightForeFoot
				{
					OFFSET 0.00000 -3.74820 0.00000
					CHANNELS 3 Zrotation Xrotation Yrotation
					JOINT RightToeBase
					{
						OFFSET 0.00000 0.06325 14.43120
						CHANNELS 3 Zrotation Xrotation Yrotation
						End site
						{
							OFFSET 0.00000 0.00000 0.00000
						}
					}
				}
			}
		}
	}
	JOINT LeftUpLeg
	{
		OFFSET 9.98441 0.00000 0.00000
		CHANNELS 3 Zrotation Xrotation Yrotation
		JOINT LeftLeg
		{
			OFFSET 0.00000 -42.11800 0.00000
			CHANNELS 3 Zrotation Xrotation Yrotation
			JOINT LeftFoot
			{
				OFFSET 0.00000 -45.00070 0.00000
				CHANNELS 3 Zrotation Xrotation Yrotation
				JOINT LeftForeFoot
				{
					OFFSET 0.00000 -3.74824 0.00000
					CHANNELS 3 Zrotation Xrotation Yrotation
					JOINT LeftToeBase
					{
						OFFSET 0.00000 0.06325 14.43110
						CHANNELS 3 Zrotation Xrotation Yrotation
						End site
						{
							OFFSET 0.00000 0.00000 0.00000
						}
					}
				}
			}
		}
	}
}
MOTION
Frames: 4
Frame Time: 0.050000
0.016866754497009178 -0.007485528210117669 -0.0021185241936739893 0.012964105880725014 -0.0453351352426463 0.010939940159068136 -1.9589110020709297 1.8168051049463363 -0.8836036780469132 -1.0160863854182849 3.94745592768825 0.41584973884946086 -1.1400809484664975 -1.4126476456520969 -1.1546524799122853 0.7856149791899188 0.6585527215482276 -0.8730894502108957 0.16936079119437875 12.325359779656273 -1.5848194873956265 -0.13690561904467322 -1.114994100634297 -5.310656309983669 0.5105330967395499 -16.942580771909565 -0.39758002296605577 -4.116810569191493 1.436808128648617 -14.93430476836659 71.04975031339055 27.322913281527818 3.655624714597187 -0.9757486015711808 5.358745092781956 39.43532211528874 22.788600291132262 -0.1436789792911043 -5.471845639611862 4.498717810525642 -0.12421937312109352 -1.6426653579788346 0.017223427167729892 0.013327511907849204 -56.216104309929186 0.04598490000185791 -0.0024910571582103373 -56.24284822086708 -38.8101608991313 0.0240513698837888 0.016024083277896416 0.027373435234823277 0.04612894190114411 0.006516950508632045 -0.019319925056942272 -0.007231144766539062 0.014886685215447252 -36.651526690975935 -0.04627869087113457 0.018627898767014678 -0.010287382106310672 0.010107211987005189 0.02470813694074308 0.0486587534256583 -0.012442433565244234 -0.007171631180364462 -19.73665773298101 0.03220452014698396 -0.00387030152415039 -0.02644542073733545 0.006928567355221905 -0.03354247479681281 -0.0094301360365209 0.01052831254037106 0.02222153591186482 24.0673674580277 0.005512159619710954 -0.011649160504952813 28.886872101679664 0.03718268584698551 0.02607920586763893 28.820966998105067 0.03576480780075237 0.021535847301195093 4.869257329290634 1.2424282290604867 12.980808818966423 -68.1134383871263 30.226604441281612 -9.166382105085892 -0.21420055010067957 -2.407144899954699 -55.26031612561758 -18.995291352074375 -7.686301703270831 7.8437996000949015 -0.43169481854021585 0.08274243338981521 -8.143688196658081 -0.020790097911239584 0.0034558714436569438 44.543218768639036 0.01905517185172236 0.026002208293665608 44.602565853788455 12.488291900078094 -0.003979684344990173 -0.021077647575090754 0.032205425542557314 0.036005154995202064 -0.02171564492461203 0.019515900177953162 -0.029770863425628468 -0.042444566414460365 11.132391255822563 0.02604471462153981 0.014674558006408062 0.016333019506900893 0.023397879792078538 -0.04819440636696815 -0.012022685492028153 -0.0006876467272705612 0.0064504537032852565 4.760551292086426 -0.03130026549156976 -0.011226888026452653 -0.023786629651187944 -0.043207750186303975 -0.01708623640423438 -0.020820293576184368 -0.03661373120675223 0.03384677138286186 -5.566787684318124 -0.00974625459023077 0.015934385092614724 -6.696670957472678 -0.015744509684998166 0.01040659891139822 -6.700432638329544 -0.0371284679363323 0.04597475421854734 -0.011156891617144402 -0.00889830037887076 -0.01249000028472695 8.061425254693297 3.5082197666368056 -19.241466785372907 -0.033015608894204705 10.407663792055356 0.05156483292518213 -5.586447423365946 -15.706412846249687 3.1923234237068066 0.016474256807620685 0.036469491510678985 -0.012611047149731618 0.00038693439876867543 4.705327303283159 -0.015459592625818122 12.477230666717213 -8.265796593590448 6.90866540902833 0.014104016905656094 46.34085638045841 -0.017373520189852304 -4.293475692766983 -14.764429086663549 -3.806766301127254 0.027873724159415598 -0.04196123966980216 -0.0032149917260980757 -0.014460727106274392 -10.750829000845867 0.012336135855258756 
0.0024077423109108735 0.03993032438178649 -0.025751112322339023 -0.004760696105727819 -0.04053619575802406 -0.03521278222457246 -1.840387020897232 1.7842838002922878 -0.9392883288457583 -1.0147162299526773 3.9594219465011427 0.35687795747346285 -1.1500979714566444 -1.4547749940044605 -1.22885625415933 0.7618809062485815 0.5872535005211194 -0.8351148095357646 0.10894776856684937 12.175890413020408 -1.4740042802980304 -0.10197457107645493 -1.026435681660022 -5.027075610365195 0.506088935842221 -16.6919895129555 -0.4116237780658365 -3.949823556520216 1.3402291325266737 -15.076767243302163 70.74884895440225 26.78431257055767 2.956707136809917 -0.7776861187795885 4.807350347326222 39.44208134658121 22.4924749103947 -0.178367955876969 -5.294013046798984 4.5219151910018445 -0.12402025806242915 -1.6149451081901463 0.021889026267654862 -0.0193363822833616 -56.211160462781024 -0.004101665016827173 -0.012943150332096151 -56.19588243904441 -38.81626152878837 -0.02709778319618473 0.014871535699784832 0.0027875551005755164 -0.02789341685765967 0.028717402150294245 -0.02344920354364423 0.009139928284062473 0.013530792101249082 -36.66720548506202 0.007332495107919896 0.0014248907570078137 0.026476640331166312 -0.004523212430680328 -0.0003779504279981257 -0.021836094160958504 0.027309015696786804 0.04514351701579613 -19.72976865009926 -0.02067433995505298 0.02135490098629021 0.001760935300978623 -0.007253465363457681 0.029520571810636248 -0.04887573110751384 -0.04769948952309109 0.04087364089937563 24.06253456308307 0.043074075135455546 -0.025938063568338283 28.86391543150272 0.04506421840591685 -0.01415937593945811 28.88875108692289 -0.00581596874945183 0.002778091829300422 4.743949734480067 1.1569156205754314 13.032199314285823 -68.11046808898243 30.372069113947507 -8.455203377795856 2.4286098824944378 -4.7257359800338765 -53.91377457616596 -18.35332505506871 -6.50895963511717 7.00036601801203 -0.5134836845280284 0.05216704711389805 -8.155737665310436 0.048777452122196155 0.007623329632268308 44.559398013656086 -0.025589285510570808 -0.038489056169716256 44.520511919424344 12.430879136417575 -0.03254980245300547 0.010927024468413458 -0.02121764330482159 -0.0384097849556423 0.005108513440344066 0.002437228114148618 -0.012049981816864978 -0.0020234329443102523 11.120367296740493 -0.01781506557394817 0.04284494982325951 -0.011294583371517414 -0.008907543297665703 0.0017641412117464432 0.02827677282170267 0.0443556528707256 -0.04893844107773684 4.742963851014547 0.018409897554015228 0.0020986496112039245 0.04093604702991592 -0.021641921434092007 0.026134046917487733 -0.029648853176271278 -0.01124238345004229 0.0051821571711593885 -5.593883310830652 -0.03242230294663699 0.03519892174619076 -6.740480546433468 0.019633465104926962 -0.011891137368132763 -6.694583941018659 -0.013215707314745815 0.041825364092657316 -0.03909646450533191 -0.025823335897508532 0.001252810555705699 8.067965849499288 3.495299309138519 -19.214181790146146 -0.005024730790767941 10.402583297223858 0.03511543475189046 -5.573356949240781 -15.648512633269572 3.2024708911565805 0.01951333072638618 0.032730490849152735 -0.00045463552587778923 0.023783311432041522 4.696929856760491 0.004352216966017064 12.49423861577599 -8.28707484738175 6.838162366590938 -0.03728888513593323 46.40272003763316 0.028226703587996053 -4.340346757488122 -14.706988337039412 -3.8018061874284257 -0.03811676981730854 0.03551237641374245 -0.03504832283912949 0.0036498873055795977 -10.711469508909413 0.009594431074804155 
-0.011683340725089848 -0.014075407483064512 0.008383954978430466 0.020092107221269685 -0.01355645310835913 -0.04589262341009222 -1.7695765135625656 1.6600788356538745 -0.9052912816046265 -1.0487861301798167 3.9790939207424003 0.3336723998471618 -1.1905155063389004 -1.3915997489163863 -1.1293254091167813 0.7432820012615607 0.5398898092063835 -0.8835583933046047 0.16514191987714175 12.077701717872621 -1.5592839617768686 -0.026543467446296994 -1.0080649187881439 -5.10630397924458 0.5300444913322023 -16.590301370929485 -0.38911767929980845 -3.9087127850157932 1.3884418428720018 -15.12376091809882 70.82030592304088 26.400625904438233 2.3185494144865926 -0.8575183603032236 4.455540590731834 39.36662260056292 22.24358038402851 -0.13346192942574775 -5.19962651911037 4.48147344884827 -0.173334371286086 -1.6421116703120597 0.02618113607449103 -0.018634115791662614 -56.26731173367538 -0.002306267222164952 -0.03613377203133744 -56.25738741468947 -38.78726143534794 0.02614434519078299 0.01532500767154367 0.007831657957760177 0.02026836702168508 0.016824927813032554 -0.03161752687731282 -0.023395639710755343 0.02537228547195754 -36.72019077100317 0.04247331297338335 -0.012541121379796993 -0.0035078512369382006 -0.023730057801284482 -0.002010040208772055 -0.030765736479577595 -0.045682992926622104 0.036577515019595726 -19.715164249700127 0.003267536191690567 -0.006494690680884909 0.004669396269770366 -0.01650913810670614 0.028535013238866157 0.01725221240131381 0.011939596290148648 -0.032457873314987756 24.066174181046996 -0.0404812018514867 0.026649954243616183 28.860467876671958 0.033792043756503964 0.0008594233521139265 28.85739055616975 -0.031680799825003464 -0.024128411401032026 4.422130157764955 1.146732451174564 13.044884447138388 -68.5799283743664 30.35330129376269 -7.268280020361993 3.9131204614540103 -5.681843880873801 -51.48359685909477 -17.880052055681237 -5.247944016299518 6.139821615564846 -0.4623403506357499 0.06047243767775639 -8.083615970860793 0.0006619449369137214 -0.021251380211352946 44.596286750053984 -0.004586892742211635 0.04850605825854992 44.51938578301084 12.491613701532184 -0.012750863429006457 0.007173232008255406 0.024752976962273982 -0.0070245884756066435 -0.0420110997840146 -0.04934441782594657 0.0038420885086276947 0.005584963167837809 11.118894100006106 -0.02583614011369609 -0.041830596303879815 -0.043652060589616716 0.015899451163074577 0.004521033736791815 -0.019417694759374604 0.020734095254061106 0.026367863266175413 4.75120934670459 0.010748987558259874 0.033183231531476724 -0.04500854752770406 0.006404505800039711 -0.01707371721975338 0.012253728465991194 0.024572294573165433 0.0028599292699099856 -5.632529135887503 -0.0048834018961704485 -0.0015619230526416482 -6.701179156961979 0.006183530025877223 0.02315856129337223 -6.768359858156601 -0.005667159036800046 -0.041238703054858016 0.02524371027820518 -0.0036886807428168217 -0.03828808869011707 8.04188295531789 3.5077839601876013 -19.202343631558545 -0.011810194608082686 10.384071218232283 0.06075435458322523 -5.636813388112559 -15.61093751203401 3.173051811725381 -0.02464933345786458 -0.03489098057992494 -0.01644029704815817 -0.009253554338020801 4.685595465945457 -0.017634448259386017 12.454457415566402 -8.18922669061229 6.883986340227034 0.00536908245013378 46.40679666702027 -0.025389262436969744 -4.287873796037238 -14.743390456432747 -3.8304738248616688 -0.016731692761275938 -0.007977038424133961 0.018660544136488887 -0.01812774663483653 -10.697777004719006 0.010576360515721977 
0.03835142499715587 -0.007239852682242762 0.027871636020313107 0.03715903511111653 0.001884962791695305 0.02177918684353963 -1.9027359827165908 1.6546617994234705 -0.8757981127598706 -0.9859768822148669 3.9362982114352856 0.40902390742326544 -1.1372713736021394 -1.4148057986642162 -1.0696447507786844 0.7287712235621697 0.5522673654666637 -0.867414504328534 0.2781224160004927 11.915977410235518 -1.5539107557483127 -0.06006523966674048 -0.9958869589877206 -5.323021635876803 0.57389326785644 -16.62925638631933 -0.4370327635055952 -3.8390343792788935 1.3725285680210213 -15.226112783227926 71.16709680518798 26.384640862751287 1.9092610002325883 -1.0875634078018699 4.033263624160552 39.5022074562332 22.01576656572654 -0.14488470689032498 -4.953852465767927 4.529635048312181 -0.08111998483435694 -1.6152621255179795 -0.04622294127415399 0.014670145075061663 -56.244017095418485 0.009554959987908618 -0.04935891982114662 -56.23156830912747 -38.81543459267853 -0.023533667181034553 -0.001221927423564374 0.0014667236302919676 -0.02267758934905462 -0.01689742399360316 -0.036019190379211204 -0.0434307683940307 -0.033798683338067965 -36.70358409602742 0.026697706709410407 -0.012362335901757737 0.001534914603537755 -0.0240049208607603 -0.01700371002192946 0.04505073469502718 0.04564353133892597 0.04603903883795811 -19.768023760530973 -0.02567381513471273 -0.027571242023341533 0.01378878526302262 0.005952135929597784 0.038209876482030086 -0.016632193351223495 0.01153916585361686 0.011851098064791728 24.02715358734393 0.008121584498587148 -0.02992116878346345 28.8735116849143 -0.007885826268832549 0.032112033821882414 28.823681658919966 -0.03003915625769936 -0.013242524783416114 4.133653351157988 1.1177737477592873 13.137026905863873 -69.27885753952918 30.049051058886352 -5.835172834631519 3.952379499627796 -5.537602476934981 -48.34520659884692 -17.600077594036293 -3.943308124309273 5.2839163969911525 -0.4295064608005089 0.051319278754423645 -8.155106601379346 0.035327341764853956 0.03348230034416477 44.590563354710454 -0.0192604972299318 0.009071642719437839 44.609734753824014 12.472584443702122 0.04357845542063013 0.04569918370839087 -0.042693263836609215 0.021859062195749256 -0.04685452083546322 0.04281059787027563 -0.03827647900960493 0.028355170606311316 11.082113669680071 0.037100862678356106 -0.027050168666938056 -0.00587878510310149 -0.04513254434845395 -0.01800530855782585 -0.004723025849120099 0.01656392171062416 -0.00893114120028659 4.750772980800448 -0.04711808032593838 -0.022522340413357475 -0.0068190840439193824 -0.033151164377041416 0.03548748545244997 -0.0487438191232038 -0.019981037455294507 -0.018620618559525137 -5.618444564470787 0.0037167192932871726 0.028122658071947877 -6.6923713583444036 -0.0048964033220135 0.028494330427928864 -6.75413836429707 -0.014623224747273829 0.010677037317767767 -0.04065223356405167 -0.008769685722067318 0.008573425850404593 8.059293310444271 3.4578639590187814 -19.20641012306096 -0.022646811138445615 10.366533771750111 0.0380382190533157 -5.651303271163772 -15.703729279478583 3.200897898336453 0.014447483758283395 0.04694768773630464 -0.017099206182291996 0.0018150779200408744 4.6860035277933285 -0.002101140380730736 12.431622559814672 -8.230624225397749 6.841400997131328 0.004626464062071397 46.3409396128328 0.012385973443955804 -4.284148639972978 -14.770193513661546 -3.816388619161047 -0.025341133383249805 0.03658991312765082 -0.02366500212797616 0.02976853447125229 -10.711086359491711 -0.022938098971026194 
